<svg xmlns="http://www.w3.org/2000/svg" width="36" height="36" viewBox="0 0 36 36">
  <g id="Group_11580" data-name="Group 11580" transform="translate(-7498 -7674)">
    <circle id="Ellipse_1483" data-name="Ellipse 1483" cx="18" cy="18" r="18" transform="translate(7498 7674)" fill="#4389f8" opacity="0.15"/>
    <g id="noun_Mail_2292472" transform="translate(7544 7623.5)">
      <g id="Group_7368" data-name="Group 7368" transform="translate(-36 62.5)">
        <path id="Path_14152" data-name="Path 14152" d="M17.1,6.5H3.48A1.482,1.482,0,0,0,2,7.98v8.29a1.482,1.482,0,0,0,1.48,1.48H17.1a1.482,1.482,0,0,0,1.48-1.48V7.98A1.482,1.482,0,0,0,17.1,6.5Zm-6.608,6.706a.294.294,0,0,1-.4,0L4.107,7.684H16.474ZM6.972,11.941,3.184,15.729V8.445Zm.871.8,1.443,1.332a1.489,1.489,0,0,0,2.008,0l1.442-1.332,3.822,3.822H4.022Zm5.765-.8,3.788-3.5v7.285Z" transform="translate(-2 -6.5)" fill="#4389f8"/>
      </g>
    </g>
  </g>
</svg>
