<svg xmlns="http://www.w3.org/2000/svg" width="36" height="36" viewBox="0 0 36 36">
  <g id="Group_7499" data-name="Group 7499" transform="translate(-9839 -7014)">
    <circle id="Ellipse_1378" data-name="Ellipse 1378" cx="18" cy="18" r="18" transform="translate(9839 7014)" fill="#4389f8" opacity="0.15"/>
    <g id="noun_Settings_943929" transform="translate(9838.8 7016.7)">
      <g id="Group_6543" data-name="Group 6543" transform="translate(11.2 7.3)">
        <path id="Path_13685" data-name="Path 13685" d="M25.294,38.45H23.845a2.535,2.535,0,0,0-2.422-1.85,2.6,2.6,0,0,0-2.441,1.85H11.906a.706.706,0,0,0,0,1.411h7.076a2.511,2.511,0,0,0,4.844,0h1.449a.7.7,0,0,0,.706-.706A.676.676,0,0,0,25.294,38.45ZM21.423,40.3a1.148,1.148,0,0,1-1.144-1.144,1.144,1.144,0,1,1,2.289,0A1.148,1.148,0,0,1,21.423,40.3Z" transform="translate(-11.2 -31.012)" fill="#4389f8"/>
        <path id="Path_13686" data-name="Path 13686" d="M11.906,10.561h1.507a2.511,2.511,0,0,0,4.844,0h7.038A.7.7,0,0,0,26,9.856a.692.692,0,0,0-.706-.706H18.257a2.511,2.511,0,0,0-4.844,0H11.906a.7.7,0,0,0-.706.706A.692.692,0,0,0,11.906,10.561Zm3.929-1.85a1.148,1.148,0,0,1,1.144,1.144A1.124,1.124,0,0,1,15.835,11,1.148,1.148,0,0,1,14.69,9.856,1.173,1.173,0,0,1,15.835,8.711Z" transform="translate(-11.2 -7.3)" fill="#4389f8"/>
        <path id="Path_13687" data-name="Path 13687" d="M25.294,67.75H18.257a2.511,2.511,0,0,0-4.844,0H11.906a.7.7,0,0,0-.706.706.692.692,0,0,0,.706.706h1.507a2.511,2.511,0,0,0,4.844,0h7.038A.7.7,0,0,0,26,68.456.692.692,0,0,0,25.294,67.75Zm-9.46,1.85a1.148,1.148,0,0,1-1.144-1.144,1.144,1.144,0,1,1,2.289,0A1.148,1.148,0,0,1,15.835,69.6Z" transform="translate(-11.2 -54.724)" fill="#4389f8"/>
      </g>
    </g>
  </g>
</svg>
