<svg xmlns="http://www.w3.org/2000/svg" width="16.269" height="12" viewBox="0 0 16.269 12">
  <g id="next-1" transform="translate(0 -64.152)">
    <path id="Path_6015" data-name="Path 6015" d="M16.119,70.35l-6.158-5.1a.407.407,0,0,0-.665.316v2.645c-2.555-.01-6.461-.2-8.533-3.856A.41.41,0,0,0,.3,64.165a.405.405,0,0,0-.3.393A8.687,8.687,0,0,0,1.986,69.8,9.469,9.469,0,0,0,9.3,73.088v2.655a.408.408,0,0,0,.233.369.4.4,0,0,0,.173.04.413.413,0,0,0,.259-.093l6.158-5.08a.409.409,0,0,0,.15-.313A.422.422,0,0,0,16.119,70.35Z" transform="translate(0)" fill="#4389f8"/>
  </g>
</svg>
