<svg xmlns="http://www.w3.org/2000/svg" width="16.5" height="16.5" viewBox="0 0 16.5 16.5">
  <g id="Group_11393" data-name="Group 11393" transform="translate(-9850.75 -7045.75)">
    <g id="Group_7459" data-name="Group 7459" transform="translate(9851 7046)">
      <path id="Union_237" data-name="Union 237" d="M15.022,15.841l-4.791-4.8a6.105,6.105,0,0,1-4,1.516A6.367,6.367,0,0,1,0,6.24,6.3,6.3,0,0,1,6.234,0a6.35,6.35,0,0,1,6.233,6.24,6.338,6.338,0,0,1-1.447,3.992l4.8,4.809a.533.533,0,0,1,0,.8.515.515,0,0,1-.4.16C15.262,16,15.1,16,15.022,15.841Zm-13.9-9.6a5.152,5.152,0,0,0,5.113,5.12,5.154,5.154,0,0,0,5.114-5.12,5.114,5.114,0,1,0-10.227,0Z" transform="translate(0 0)" fill="#b4b4c9" stroke="#b4b4c9" stroke-width="0.5"/>
    </g>
  </g>
</svg>
