<svg xmlns="http://www.w3.org/2000/svg" width="49" height="49" viewBox="0 0 49 49">
  <g id="Group_11802" data-name="Group 11802" transform="translate(-880 -837)">
    <circle id="Ellipse_1485" data-name="Ellipse 1485" cx="24.5" cy="24.5" r="24.5" transform="translate(880 837)" fill="rgba(67,137,248,0.15)"/>
    <path id="Path_14095" data-name="Path 14095" d="M10,0A10,10,0,1,0,20,10,10,10,0,0,0,10,0Zm4.323,11.9h-4.24c-.014,0-.028,0-.042,0s-.027,0-.042,0a.692.692,0,0,1-.692-.692V4.15a.692.692,0,0,1,1.383,0v6.369h3.631a.692.692,0,0,1,0,1.383Z" transform="translate(895 852)" fill="#4389f8"/>
  </g>
</svg>
