<svg xmlns="http://www.w3.org/2000/svg" width="10.973" height="14.092" viewBox="0 0 10.973 14.092">
  <g id="noun_User_followers_631283" data-name="noun_User followers_631283" transform="translate(-12 -16.06)">
    <g id="Group_10184" data-name="Group 10184" transform="translate(12 16.06)">
      <g id="Group_10183" data-name="Group 10183" transform="translate(0 0)">
        <path id="Path_14354" data-name="Path 14354" d="M27.473,22.722c1.677,0,3.022-1.9,3.022-3.6a3.037,3.037,0,1,0-6.074,0C24.42,20.82,25.8,22.722,27.473,22.722Z" transform="translate(-21.986 -16.06)" fill="#b4b4c9"/>
        <path id="Path_14355" data-name="Path 14355" d="M18.611,56.979H16.352A4.349,4.349,0,0,0,12,61.325l.01.514a1.215,1.215,0,0,0,1.216,1.214h8.531a1.215,1.215,0,0,0,1.216-1.214l-.01-.514A4.349,4.349,0,0,0,18.611,56.979Z" transform="translate(-12 -48.961)" fill="#b4b4c9"/>
      </g>
    </g>
  </g>
</svg>
