<svg xmlns="http://www.w3.org/2000/svg" width="17.17" height="20.515" viewBox="0 0 17.17 20.515"><defs><style>.a{fill:#b4b4c9;stroke:#b4b4c9;stroke-width:0.5px;}</style></defs><g transform="translate(0.25 0.25)"><g transform="translate(0)"><path class="a" d="M57.341,13.363l-.145-.047-2.866-.646v-1.46A4.964,4.964,0,0,0,56,7.5V4.6A4.6,4.6,0,0,0,51.4,0h-.8A4.6,4.6,0,0,0,46,4.6V7.5a4.964,4.964,0,0,0,1.667,3.708v1.46l-2.866.646-.145.047a3.284,3.284,0,0,0-1.99,3.017V18.1a.833.833,0,0,0,.628.808l1.379.35a27.177,27.177,0,0,0,12.644,0l1.39-.353a.833.833,0,0,0,.628-.808V16.38A3.284,3.284,0,0,0,57.341,13.363Zm.323,4.088-.75.191a25.489,25.489,0,0,1-11.846,0l-.74-.188V16.38a1.617,1.617,0,0,1,.917-1.457l3.434-.774a.833.833,0,0,0,.65-.813v-2.52A.834.834,0,0,0,49,10.151,3.311,3.311,0,0,1,47.662,7.5V4.6A2.935,2.935,0,0,1,50.6,1.667h.8A2.935,2.935,0,0,1,54.33,4.6V7.5a3.311,3.311,0,0,1-1.336,2.65.834.834,0,0,0-.331.665v2.52a.833.833,0,0,0,.65.813l3.434.774a1.617,1.617,0,0,1,.917,1.457v1.07Z" transform="translate(-42.661)"/></g></g></svg>