<svg xmlns="http://www.w3.org/2000/svg" width="39.872" height="39.914" viewBox="0 0 39.872 39.914">
  <g id="Group_5496" data-name="Group 5496" transform="translate(-7483 -9694)">
    <path id="Path_8" data-name="Path 8" d="M132.246,103.5,120.64,96.814a.389.389,0,0,0-.428,0L116.7,98.827a.407.407,0,0,0,0,.728l4.368,2.57,9.422,5.439a.389.389,0,0,0,.428,0l1.756-1.028a.527.527,0,0,0,.214-.428,22.684,22.684,0,0,0-.428-2.355A1.136,1.136,0,0,0,132.246,103.5Z" transform="translate(7389.812 9605.28)" fill="#f3f4f8"/>
    <path id="Path_9" data-name="Path 9" d="M77.989,120.669l3.383-1.927a.407.407,0,0,0,0-.728L78.931,116.6,66.64,109.406a.45.45,0,0,1-.214-.385V98.014a.425.425,0,0,0-.771-.257A19.568,19.568,0,0,0,62.1,109.063v.171a19.608,19.608,0,0,0,3.6,11.306.423.423,0,0,0,.771-.257v-5.311a.426.426,0,0,1,.642-.385l8.822,5.1,1.67.985A.32.32,0,0,0,77.989,120.669Z" transform="translate(7420.9 9604.809)" fill="#f3f4f8"/>
    <path id="Path_10" data-name="Path 10" d="M97.737,78c-.6,0-1.156.043-1.756.086a.44.44,0,0,0-.171.814l4.968,2.869h0l-1.542.9h0l-3.9,2.27-3,1.627h0l-2.527,1.456a.45.45,0,0,0-.214.385v3.9a.44.44,0,0,0,.642.385l7.238-4.154h0l1.585-.9h0l3.94-2.27,1.8-1.028a.389.389,0,0,1,.428,0l9.893,5.7a.431.431,0,0,0,.6-.557A19.838,19.838,0,0,0,97.737,78Z" transform="translate(7405.178 9616)" fill="#f3f4f8"/>
    <path id="Path_11" data-name="Path 11" d="M104.661,142.229a.44.44,0,0,0-.642-.385l-3.854,2.227-.771.471-9.379,5.439a.45.45,0,0,0-.214.385v2.013a.375.375,0,0,0,.257.385,20.4,20.4,0,0,0,2.27.814.455.455,0,0,0,.343-.043l11.82-6.852a.45.45,0,0,0,.214-.385Z" transform="translate(7405.063 9579.523)" fill="#f3f4f8"/>
    <path id="Path_12" data-name="Path 12" d="M80,145.575l-3.555-2.056a.426.426,0,0,0-.642.385v5.439a.389.389,0,0,0,.128.3,19.08,19.08,0,0,0,3.64,2.784.426.426,0,0,0,.642-.385v-6.124A.437.437,0,0,0,80,145.575Z" transform="translate(7413.067 9578.575)" fill="#f3f4f8"/>
    <path id="Path_13" data-name="Path 13" d="M123.147,126.725l-4.2,2.441a.426.426,0,0,1-.642-.385V127.71h0v-5.1h0v-1.8h0v-3.64a.45.45,0,0,0-.214-.385l-3.469-1.97a.426.426,0,0,0-.642.385v8.137h0v8.437a.45.45,0,0,1-.214.385l-10.15,5.867a.44.44,0,0,0,.171.814c.6.043,1.2.086,1.842.086a20.055,20.055,0,0,0,10.278-2.827l.086-.043a20.23,20.23,0,0,0,7.794-8.737C123.918,126.9,123.489,126.511,123.147,126.725Z" transform="translate(7397.284 9594.983)" fill="#f3f4f8"/>
    <path id="Path_14" data-name="Path 14" d="M89.7,124.488a.45.45,0,0,0,.214.385l2.184,1.285,5.782,3.383a.426.426,0,0,0,.642-.385l-.043-4.368a.45.45,0,0,0-.214-.385l-3.255-1.756h0l-4.668-2.527a.426.426,0,0,0-.642.385Z" transform="translate(7405.12 9591.953)" fill="#f3f4f8"/>
    <path id="Path_15" data-name="Path 15" d="M75.7,89.233V102.21a.45.45,0,0,0,.214.385l3.512,2.056a.426.426,0,0,0,.642-.385l.043-4.026V92.531h0v-3.94a.45.45,0,0,0-.214-.385l-1.67-.985a.39.39,0,0,0-.471.043,24.121,24.121,0,0,0-1.927,1.627A.486.486,0,0,0,75.7,89.233Z" transform="translate(7413.124 9610.763)" fill="#f3f4f8"/>
    <path id="Path_16" data-name="Path 16" d="M92.9,110.153l3.6,1.97a.389.389,0,0,0,.428,0l3.212-1.713,1.542-.814h0l.771-.428,2.355-1.285a.407.407,0,0,0,0-.728l-2.056-1.2-1.627-.942a.389.389,0,0,0-.428,0l-1.413.771-3.9,2.184L92.9,109.425A.407.407,0,0,0,92.9,110.153Z" transform="translate(7403.419 9600.592)" fill="#f3f4f8"/>
    <path id="Path_17" data-name="Path 17" d="M147.539,124.146h0a.241.241,0,0,0-.385-.214l-5.139,2.912a.45.45,0,0,0-.214.385V131.3a.426.426,0,0,0,.642.385l4.325-2.484a.63.63,0,0,0,.214-.257A22.577,22.577,0,0,0,147.539,124.146Z" transform="translate(7375.333 9589.769)" fill="#f3f4f8"/>
    <path id="Path_18" data-name="Path 18" d="M113.843,124.279v1.756a.44.44,0,0,0,.642.385l3.683-2.141a.45.45,0,0,0,.214-.385v-8.865a.44.44,0,0,0-.642-.385l-3.726,2.013a.45.45,0,0,0-.214.385Z" transform="translate(7391.342 9595.074)" fill="#f3f4f8"/>
    <path id="Path_19" data-name="Path 19" d="M85.7,82.16l4.968,2.912a.389.389,0,0,0,.428,0l3.555-2.056a.407.407,0,0,0,0-.728L90.2,79.719a.455.455,0,0,0-.343-.043A20.7,20.7,0,0,0,85.7,81.389.443.443,0,0,0,85.7,82.16Z" transform="translate(7407.536 9615.052)" fill="#f3f4f8"/>
  </g>
</svg>
