<svg id="Layer_1" data-name="Layer 1" xmlns="http://www.w3.org/2000/svg" viewBox="0 0 39.87 39.91"><defs><style>.cls-1{fill:#22283a;opacity:0.1;isolation:isolate;}</style></defs><title>no creditsArtboard 1</title><g id="Group_5504" data-name="Group 5504"><path id="Path_16" data-name="Path 16" class="cls-1" d="M13.32,16.74l3.6,2a.38.38,0,0,0,.43,0L20.56,17l1.54-.81h0l.77-.43,2.36-1.29a.4.4,0,0,0,.18-.54.39.39,0,0,0-.18-.18l-2.06-1.2-1.63-1a.4.4,0,0,0-.42,0l-1.42.78-3.9,2.18L13.32,16a.4.4,0,0,0-.18.54A.35.35,0,0,0,13.32,16.74Z"/><path id="Path_18" data-name="Path 18" class="cls-1" d="M22.18,25.35v1.76a.44.44,0,0,0,.45.43.35.35,0,0,0,.2-.05l3.68-2.14a.44.44,0,0,0,.21-.38V16.1a.44.44,0,0,0-.44-.43.46.46,0,0,0-.2.05l-3.72,2a.44.44,0,0,0-.22.39Z"/><path id="Path_8" data-name="Path 8" class="cls-1" d="M39.06,14.78,27.45,8.09a.42.42,0,0,0-.43,0l-3.51,2a.4.4,0,0,0-.18.54.41.41,0,0,0,.18.19l4.37,2.57,9.42,5.43a.38.38,0,0,0,.43,0l1.76-1a.55.55,0,0,0,.21-.43A21.25,21.25,0,0,0,39.27,15,1.27,1.27,0,0,0,39.06,14.78Z"/><path id="Path_9" data-name="Path 9" class="cls-1" d="M15.89,31.48l3.38-1.93a.41.41,0,0,0,.18-.55.45.45,0,0,0-.18-.18l-2.44-1.41L4.54,20.21a.44.44,0,0,1-.21-.38v-11a.42.42,0,0,0-.42-.43.42.42,0,0,0-.36.18A19.61,19.61,0,0,0,0,19.87V20A19.59,19.59,0,0,0,3.6,31.35a.43.43,0,0,0,.59.11.42.42,0,0,0,.18-.37V25.78a.42.42,0,0,1,.41-.44A.32.32,0,0,1,5,25.4l8.82,5.1,1.67,1A.33.33,0,0,0,15.89,31.48Z"/><path id="Path_10" data-name="Path 10" class="cls-1" d="M19.92,0c-.6,0-1.16,0-1.76.09a.44.44,0,0,0-.38.49A.41.41,0,0,0,18,.9l5,2.87h0l-1.55.9h0l-3.9,2.27-3,1.63h0L12,10a.44.44,0,0,0-.22.39v3.9a.45.45,0,0,0,.45.43.49.49,0,0,0,.2-.05l7.23-4.15h0l1.59-.9h0l3.94-2.27,1.8-1a.38.38,0,0,1,.43,0L37.3,12a.43.43,0,0,0,.6-.56A19.83,19.83,0,0,0,19.92,0Z"/><path id="Path_11" data-name="Path 11" class="cls-1" d="M26.72,27.75a.44.44,0,0,0-.44-.43.46.46,0,0,0-.2.05l-3.85,2.22-.77.48L12.08,35.5a.46.46,0,0,0-.22.39v2a.4.4,0,0,0,.26.39,20.43,20.43,0,0,0,2.27.81.44.44,0,0,0,.34,0l11.82-6.85a.46.46,0,0,0,.22-.39Z"/><path id="Path_12" data-name="Path 12" class="cls-1" d="M10.07,30.15,6.51,28.09a.42.42,0,0,0-.58.15.53.53,0,0,0-.06.24v5.44a.39.39,0,0,0,.13.3A19,19,0,0,0,9.64,37a.42.42,0,0,0,.58-.15.46.46,0,0,0,.06-.23V30.49A.43.43,0,0,0,10.07,30.15Z"/><path id="Path_13" data-name="Path 13" class="cls-1" d="M37.43,27.71l-4.2,2.44a.42.42,0,0,1-.58-.15.48.48,0,0,1-.06-.24V28.69h0v-5.1h0v-1.8h0V18.15a.45.45,0,0,0-.21-.38l-3.47-2a.43.43,0,0,0-.59.15.46.46,0,0,0-.06.23v8.14h0v8.44a.45.45,0,0,1-.21.38L17.9,39a.43.43,0,0,0-.15.6.41.41,0,0,0,.32.21c.6,0,1.2.09,1.84.09a20.11,20.11,0,0,0,10.28-2.83l.09,0a20.22,20.22,0,0,0,7.79-8.74C38.2,27.88,37.77,27.49,37.43,27.71Z"/><path id="Path_14" data-name="Path 14" class="cls-1" d="M11.82,22.44a.47.47,0,0,0,.21.39l2.19,1.28L20,27.49a.42.42,0,0,0,.58-.15.32.32,0,0,0,.06-.23l0-4.37a.44.44,0,0,0-.21-.38L17.13,20.6h0l-4.67-2.53a.42.42,0,0,0-.58.15.5.5,0,0,0-.06.24Z"/><path id="Path_15" data-name="Path 15" class="cls-1" d="M5.82,6V19a.44.44,0,0,0,.22.39l3.51,2.05a.42.42,0,0,0,.58-.15.32.32,0,0,0,.06-.23l.05-4V9.29h0V5.35A.46.46,0,0,0,10,5L8.35,4A.39.39,0,0,0,7.88,4c-.67.51-1.31,1-1.93,1.62A.56.56,0,0,0,5.82,6Z"/><path id="Path_17" data-name="Path 17" class="cls-1" d="M39.87,19.91h0a.24.24,0,0,0-.22-.26.22.22,0,0,0-.16.05l-5.14,2.91a.44.44,0,0,0-.22.39v4.07a.43.43,0,0,0,.41.44.35.35,0,0,0,.24-.06L39.1,25a.7.7,0,0,0,.22-.26A22.72,22.72,0,0,0,39.87,19.91Z"/><path id="Path_19" data-name="Path 19" class="cls-1" d="M10.24,3.21l5,2.91a.38.38,0,0,0,.43,0l3.56-2a.41.41,0,0,0,.18-.55.39.39,0,0,0-.18-.18L14.74.77a.47.47,0,0,0-.35,0,20.85,20.85,0,0,0-4.15,1.71.43.43,0,0,0-.17.6A.46.46,0,0,0,10.24,3.21Z"/></g></svg>