<svg xmlns="http://www.w3.org/2000/svg" width="20.76" height="17" viewBox="0 0 20.76 17">
  <path id="Union_206" data-name="Union 206" d="M2.768,17a2.747,2.747,0,0,1-1.957-.766A2.452,2.452,0,0,1,0,14.385V5.231A2.452,2.452,0,0,1,.811,3.382a2.747,2.747,0,0,1,1.957-.766H5.19l.551-1.389A1.925,1.925,0,0,1,6.493.363,2,2,0,0,1,7.612,0h5.536a2,2,0,0,1,1.119.363,1.924,1.924,0,0,1,.752.863l.551,1.389h2.422a2.747,2.747,0,0,1,1.957.766,2.452,2.452,0,0,1,.811,1.849v9.154a2.452,2.452,0,0,1-.811,1.849A2.747,2.747,0,0,1,17.992,17ZM6.958,6.574a4.387,4.387,0,0,0,0,6.467,4.8,4.8,0,0,0,3.422,1.344A4.8,4.8,0,0,0,13.8,13.041a4.387,4.387,0,0,0,0-6.467A4.805,4.805,0,0,0,10.38,5.231,4.8,4.8,0,0,0,6.958,6.574Zm1.222,5.312a2.822,2.822,0,0,1,0-4.158,3.089,3.089,0,0,1,2.2-.863,3.089,3.089,0,0,1,2.2.863,2.822,2.822,0,0,1,0,4.158,3.09,3.09,0,0,1-2.2.863A3.09,3.09,0,0,1,8.179,11.887Z" fill="#fff"/>
</svg>
