<svg xmlns="http://www.w3.org/2000/svg" width="19.295" height="16" viewBox="0 0 19.295 16">
  <path id="Union_238" data-name="Union 238" d="M14.243,16a.939.939,0,0,1-.935-.941V13.633a.96.96,0,0,1,.676-.909V10.862a6.618,6.618,0,0,0-2.414,1.247L9.848,13.535a.016.016,0,0,0-.016.017c-.015.017-.032.017-.049.033a.015.015,0,0,0-.015.015c-.016,0-.033.017-.048.017H9.559c-.015,0-.031-.017-.048-.017,0,0-.018,0-.018-.015-.015,0-.03-.016-.047-.033a.016.016,0,0,1-.017-.017l-1.721-1.41a6.645,6.645,0,0,0-4.2-1.508.322.322,0,0,1-.321-.323L3.17,6.275,9.527,8.366a.212.212,0,0,0,.1.015.22.22,0,0,0,.1-.015L16.077,6.29l.015,4.02a.323.323,0,0,1-.32.326,6.835,6.835,0,0,0-1.143.1v1.994a.945.945,0,0,1,.676.909V15.06A.938.938,0,0,1,14.37,16ZM9.559,6.777,3.2,4.685.225,3.7a.323.323,0,0,1,0-.615L9.559.017C9.559,0,9.575,0,9.59,0h.163l9.331,3.064H19.1c.018,0,.018.017.033.017a.064.064,0,0,1,.032.015.054.054,0,0,1,.032.016l.015.017c.018,0,.033,0,.033.017a.057.057,0,0,0,.018.032c0,.017.015.017.015.032.017.017.017.017.017.034v.243c-.017.032-.031.048-.049.08v.017c-.016.033-.048.048-.063.065l-.017.017c-.032.015-.048.031-.082.031l-2.992.989L9.753,6.777a.231.231,0,0,1-.1.015A.218.218,0,0,1,9.559,6.777Z"/>
</svg>
