<svg xmlns="http://www.w3.org/2000/svg" width="49" height="49" viewBox="0 0 49 49">
  <g id="Group_11803" data-name="Group 11803" transform="translate(-880 -837)">
    <circle id="Ellipse_1485" data-name="Ellipse 1485" cx="24.5" cy="24.5" r="24.5" transform="translate(880 837)" fill="rgba(106,40,230,0.15)"/>
    <path id="Union_243" data-name="Union 243" d="M15.189,17a1,1,0,0,1-1-1V14.486a1.02,1.02,0,0,1,.721-.966V11.54a7.071,7.071,0,0,0-2.575,1.325L10.5,14.381a.017.017,0,0,0-.017.018c-.016.017-.034.017-.052.035a.016.016,0,0,0-.016.016c-.017,0-.035.018-.051.018h-.173c-.016,0-.034-.018-.052-.018,0,0-.018,0-.018-.016-.016,0-.033-.017-.051-.035a.018.018,0,0,1-.018-.018l-1.834-1.5a7.1,7.1,0,0,0-4.48-1.6.343.343,0,0,1-.342-.344l-.018-4.27L10.16,8.889a.232.232,0,0,0,.1.016.24.24,0,0,0,.1-.016l6.779-2.206.016,4.271a.345.345,0,0,1-.342.346,7.231,7.231,0,0,0-1.218.1V13.52a1,1,0,0,1,.721.966V16a1,1,0,0,1-1,1Zm-5-9.8L3.415,4.978.239,3.927a.343.343,0,0,1,0-.654L10.194.018c0-.018.017-.018.032-.018H10.4l9.952,3.255h.017c.017,0,.017.018.035.018a.066.066,0,0,1,.034.016.061.061,0,0,1,.035.018l.016.017c.018,0,.036,0,.036.018a.062.062,0,0,0,.018.034c0,.018.015.018.015.033.017.018.017.018.017.036V3.7c-.017.034-.032.052-.051.085v.018c-.017.035-.052.051-.069.069l-.017.018c-.034.016-.052.034-.086.034L17.161,4.978,10.4,7.2a.244.244,0,0,1-.1.016A.23.23,0,0,1,10.194,7.2Z" transform="translate(894 853)" fill="#6a28e6"/>
  </g>
</svg>
