<svg xmlns="http://www.w3.org/2000/svg" width="46" height="46" viewBox="0 0 46 46">
  <g id="Group_7059" data-name="Group 7059" transform="translate(-6979 -13955)">
    <circle id="Ellipse_1288" data-name="Ellipse 1288" cx="23" cy="23" r="23" transform="translate(6979 13955)" fill="#4389f8" opacity="0.15"/>
    <g id="Group_2" data-name="Group 2" transform="translate(6993 13969)">
      <path id="Path_8" data-name="Path 8" d="M123.768,99.869,118.4,96.78a.18.18,0,0,0-.2,0l-1.624.931a.188.188,0,0,0,0,.337l2.02,1.188,4.357,2.515a.18.18,0,0,0,.2,0l.812-.475a.244.244,0,0,0,.1-.2,10.486,10.486,0,0,0-.2-1.089A.524.524,0,0,0,123.768,99.869Z" transform="translate(-105.706 -93.037)" fill="#4389f8"/>
      <path id="Path_9" data-name="Path 9" d="M69.448,108.254l1.565-.891a.188.188,0,0,0,0-.337l-1.129-.654L64.2,103.046a.208.208,0,0,1-.1-.178v-5.09a.2.2,0,0,0-.356-.119,9.049,9.049,0,0,0-1.644,5.228v.079a9.068,9.068,0,0,0,1.664,5.228.2.2,0,0,0,.356-.119V105.62a.2.2,0,0,1,.3-.178L68.5,107.8l.772.456A.148.148,0,0,0,69.448,108.254Z" transform="translate(-62.1 -93.698)" fill="#4389f8"/>
      <path id="Path_10" data-name="Path 10" d="M93.363,78c-.277,0-.535.02-.812.04a.2.2,0,0,0-.079.376l2.3,1.327h0l-.713.416h0l-1.8,1.05-1.386.753h0l-1.168.673a.208.208,0,0,0-.1.178v1.8a.2.2,0,0,0,.3.178l3.347-1.921h0l.733-.416h0l1.822-1.05.832-.475a.18.18,0,0,1,.2,0l4.575,2.634a.2.2,0,0,0,.277-.257A9.174,9.174,0,0,0,93.363,78Z" transform="translate(-84.154 -78)" fill="#4389f8"/>
      <path id="Path_11" data-name="Path 11" d="M96.672,142a.2.2,0,0,0-.3-.178l-1.782,1.03-.356.218L89.9,145.583a.208.208,0,0,0-.1.178v.931a.173.173,0,0,0,.119.178,9.425,9.425,0,0,0,1.05.376.21.21,0,0,0,.158-.02l5.466-3.169a.208.208,0,0,0,.1-.178Z" transform="translate(-84.314 -129.165)" fill="#4389f8"/>
      <path id="Path_12" data-name="Path 12" d="M77.741,144.438l-1.644-.951a.2.2,0,0,0-.3.178v2.515a.18.18,0,0,0,.059.139,8.821,8.821,0,0,0,1.683,1.287.2.2,0,0,0,.3-.178V144.6A.2.2,0,0,0,77.741,144.438Z" transform="translate(-73.087 -130.495)" fill="#4389f8"/>
      <path id="Path_13" data-name="Path 13" d="M112.535,120.293l-1.941,1.129a.2.2,0,0,1-.3-.178v-.5h0v-2.357h0v-.832h0v-1.683a.208.208,0,0,0-.1-.178l-1.6-.911a.2.2,0,0,0-.3.178v3.763h0v3.9a.208.208,0,0,1-.1.178l-4.694,2.713a.2.2,0,0,0,.079.376c.277.02.555.04.852.04a9.275,9.275,0,0,0,4.753-1.307l.04-.02a9.355,9.355,0,0,0,3.6-4.04C112.892,120.372,112.694,120.194,112.535,120.293Z" transform="translate(-95.226 -107.479)" fill="#4389f8"/>
      <path id="Path_14" data-name="Path 14" d="M89.7,122.107a.208.208,0,0,0,.1.178l1.01.594,2.674,1.565a.2.2,0,0,0,.3-.178l-.02-2.02a.208.208,0,0,0-.1-.178l-1.505-.812h0L90,120.087a.2.2,0,0,0-.3.178Z" transform="translate(-84.234 -111.729)" fill="#4389f8"/>
      <path id="Path_15" data-name="Path 15" d="M75.7,88.119v6a.208.208,0,0,0,.1.178l1.624.951a.2.2,0,0,0,.3-.178l.02-1.862V89.644h0V87.822a.208.208,0,0,0-.1-.178l-.772-.456a.18.18,0,0,0-.218.02,11.154,11.154,0,0,0-.891.753A.225.225,0,0,0,75.7,88.119Z" transform="translate(-73.007 -85.346)" fill="#4389f8"/>
      <path id="Path_16" data-name="Path 16" d="M92.779,107.356l1.664.911a.18.18,0,0,0,.2,0l1.485-.792.713-.376h0l.356-.2,1.089-.594a.188.188,0,0,0,0-.337l-.951-.555-.753-.436a.18.18,0,0,0-.2,0l-.654.356-1.8,1.01-1.149.673A.188.188,0,0,0,92.779,107.356Z" transform="translate(-86.62 -99.613)" fill="#4389f8"/>
      <path id="Path_17" data-name="Path 17" d="M144.454,124h0a.111.111,0,0,0-.178-.1l-2.377,1.347a.208.208,0,0,0-.1.178v1.881a.2.2,0,0,0,.3.178l2-1.149a.291.291,0,0,0,.1-.119A10.44,10.44,0,0,0,144.454,124Z" transform="translate(-126.016 -114.794)" fill="#4389f8"/>
      <path id="Path_18" data-name="Path 18" d="M113.82,119.076v.812a.2.2,0,0,0,.3.178l1.7-.99a.208.208,0,0,0,.1-.178v-4.1a.2.2,0,0,0-.3-.178l-1.723.931a.208.208,0,0,0-.1.178Z" transform="translate(-103.561 -107.352)" fill="#4389f8"/>
      <path id="Path_19" data-name="Path 19" d="M85.579,80.815l2.3,1.347a.18.18,0,0,0,.2,0l1.644-.951a.188.188,0,0,0,0-.337l-2.06-1.188a.21.21,0,0,0-.158-.02,9.571,9.571,0,0,0-1.921.792A.2.2,0,0,0,85.579,80.815Z" transform="translate(-80.846 -79.33)" fill="#4389f8"/>
    </g>
  </g>
</svg>
