<?xml version="1.0" encoding="utf-8"?>
<!-- Generator: Adobe Illustrator 24.2.1, SVG Export Plug-In . SVG Version: 6.00 Build 0)  -->
<svg version="1.1" id="Group_5493" xmlns="http://www.w3.org/2000/svg" xmlns:xlink="http://www.w3.org/1999/xlink" x="0px" y="0px"
	 viewBox="0 0 39.9 39.9" style="enable-background:new 0 0 39.9 39.9;" xml:space="preserve">
<style type="text/css">
	.st0{fill:#E63146;}
	.st1{fill:#F7CF34;}
	.st2{fill:#4389F8;}
</style>
<path id="Path_8" class="st0" d="M39.1,14.8L27.5,8.1C27.3,8,27.2,8,27,8.1l-3.5,2c-0.2,0.1-0.3,0.3-0.2,0.5c0,0.1,0.1,0.1,0.2,0.2
	l4.4,2.6l9.4,5.4c0.1,0.1,0.3,0.1,0.4,0l1.8-1c0.1-0.1,0.2-0.3,0.2-0.4c-0.1-0.8-0.2-1.6-0.4-2.4C39.2,14.9,39.1,14.9,39.1,14.8z"/>
<path id="Path_9" class="st0" d="M15.9,31.5l3.4-1.9c0.2-0.1,0.3-0.3,0.2-0.5c0-0.1-0.1-0.1-0.2-0.2l-2.4-1.4L4.5,20.2
	c-0.1-0.1-0.2-0.2-0.2-0.4v-11c0-0.2-0.2-0.4-0.4-0.4c-0.1,0-0.3,0.1-0.4,0.2C1.2,11.9,0,15.8,0,19.9V20c0,4.1,1.3,8,3.6,11.3
	c0.1,0.2,0.4,0.2,0.6,0.1c0.1-0.1,0.2-0.2,0.2-0.4v-5.3c0-0.2,0.2-0.4,0.4-0.4c0.1,0,0.2,0,0.2,0.1l8.8,5.1l1.7,1
	C15.6,31.6,15.8,31.6,15.9,31.5z"/>
<path id="Path_10" class="st1" d="M19.9,0c-0.6,0-1.2,0-1.8,0.1c-0.2,0-0.4,0.3-0.4,0.5c0,0.1,0.1,0.3,0.2,0.3l5,2.9l0,0l-1.5,0.9
	l0,0l-3.9,2.3l-3,1.6l0,0L12,10c-0.1,0.1-0.2,0.2-0.2,0.4v3.9c0,0.2,0.2,0.4,0.4,0.4c0.1,0,0.1,0,0.2,0l7.2-4.2l0,0l1.6-0.9l0,0
	l3.9-2.3l1.8-1c0.1-0.1,0.3-0.1,0.4,0l9.9,5.7c0.2,0.1,0.5,0,0.6-0.2c0.1-0.1,0.1-0.3,0-0.4C34.6,4.5,27.6,0,19.9,0z"/>
<path id="Path_11" class="st1" d="M26.7,27.8c0-0.2-0.2-0.4-0.4-0.4c-0.1,0-0.1,0-0.2,0l-3.9,2.2l-0.8,0.5l-9.4,5.4
	c-0.1,0.1-0.2,0.2-0.2,0.4v2c0,0.2,0.1,0.3,0.3,0.4c0.7,0.3,1.5,0.6,2.3,0.8c0.1,0,0.2,0,0.3,0l11.8-6.9c0.1-0.1,0.2-0.2,0.2-0.4
	L26.7,27.8z"/>
<path id="Path_12" class="st2" d="M10.1,30.1l-3.6-2.1C6.3,28,6,28,5.9,28.2c0,0.1-0.1,0.2-0.1,0.2v5.4c0,0.1,0,0.2,0.1,0.3
	c1.1,1.1,2.3,2,3.6,2.8c0.2,0.1,0.5,0.1,0.6-0.2c0-0.1,0.1-0.2,0.1-0.2v-6.1C10.3,30.4,10.2,30.2,10.1,30.1z"/>
<path id="Path_13" class="st2" d="M37.4,27.7l-4.2,2.4c-0.2,0.1-0.5,0.1-0.6-0.2c0-0.1-0.1-0.2-0.1-0.2v-1.1l0,0v-5.1l0,0v-1.8l0,0
	v-3.6c0-0.2-0.1-0.3-0.2-0.4l-3.5-2c-0.2-0.1-0.5-0.1-0.6,0.2c0,0.1-0.1,0.2-0.1,0.2v8.1l0,0v8.4c0,0.2-0.1,0.3-0.2,0.4L17.9,39
	c-0.2,0.1-0.3,0.4-0.2,0.6c0.1,0.1,0.2,0.2,0.3,0.2c0.6,0,1.2,0.1,1.8,0.1c3.6,0,7.2-1,10.3-2.8l0.1,0c3.4-2.1,6.1-5.1,7.8-8.7
	C38.2,27.9,37.8,27.5,37.4,27.7z"/>
<path id="Path_14" class="st1" d="M11.8,22.4c0,0.2,0.1,0.3,0.2,0.4l2.2,1.3l5.8,3.4c0.2,0.1,0.5,0.1,0.6-0.2c0-0.1,0.1-0.2,0.1-0.2
	l0-4.4c0-0.2-0.1-0.3-0.2-0.4l-3.3-1.8l0,0l-4.7-2.5C12.3,18,12,18,11.9,18.2c0,0.1-0.1,0.2-0.1,0.2V22.4z"/>
<path id="Path_15" class="st2" d="M5.8,6v13c0,0.2,0.1,0.3,0.2,0.4l3.5,2.1c0.2,0.1,0.5,0.1,0.6-0.2c0-0.1,0.1-0.2,0.1-0.2l0-4V9.3
	l0,0V5.4c0-0.2-0.1-0.3-0.2-0.4L8.4,4C8.2,3.9,8,3.9,7.9,4C7.2,4.5,6.6,5.1,6,5.7C5.9,5.7,5.8,5.9,5.8,6z"/>
<path id="Path_16" class="st2" d="M13.3,16.7l3.6,2c0.1,0.1,0.3,0.1,0.4,0l3.2-1.7l1.5-0.8l0,0l0.8-0.4l2.4-1.3
	c0.2-0.1,0.3-0.3,0.2-0.5c0-0.1-0.1-0.1-0.2-0.2l-2.1-1.2l-1.6-0.9c-0.1-0.1-0.3-0.1-0.4,0l-1.4,0.8l-3.9,2.2L13.3,16
	c-0.2,0.1-0.3,0.3-0.2,0.5C13.2,16.6,13.2,16.7,13.3,16.7z"/>
<path id="Path_17" class="st1" d="M39.9,19.9L39.9,19.9c0-0.1-0.1-0.2-0.2-0.3c-0.1,0-0.1,0-0.2,0l-5.1,2.9
	c-0.1,0.1-0.2,0.2-0.2,0.4v4.1c0,0.2,0.2,0.4,0.4,0.4c0.1,0,0.2,0,0.2-0.1l4.3-2.5c0.1-0.1,0.2-0.2,0.2-0.3
	C39.7,23.1,39.9,21.5,39.9,19.9z"/>
<path id="Path_18" class="st0" d="M22.2,25.4v1.8c0,0.2,0.2,0.4,0.4,0.4c0.1,0,0.1,0,0.2,0l3.7-2.1c0.1-0.1,0.2-0.2,0.2-0.4v-8.9
	c0-0.2-0.2-0.4-0.4-0.4c-0.1,0-0.1,0-0.2,0l-3.7,2c-0.1,0.1-0.2,0.2-0.2,0.4L22.2,25.4z"/>
<path id="Path_19" class="st0" d="M10.2,3.2l5,2.9c0.1,0.1,0.3,0.1,0.4,0l3.6-2.1c0.2-0.1,0.3-0.3,0.2-0.5c0-0.1-0.1-0.1-0.2-0.2
	l-4.5-2.6c-0.1-0.1-0.2-0.1-0.3,0c-1.4,0.4-2.8,1-4.2,1.7C10,2.6,9.9,2.8,10.1,3C10.1,3.1,10.2,3.2,10.2,3.2z"/>
</svg>
