<svg xmlns="http://www.w3.org/2000/svg" width="18.27" height="18.275" viewBox="0 0 18.27 18.275"><defs><style>.a{fill:#4285f4;}.b{fill:#34a853;}.c{fill:#fbbc05;}.d{fill:#ea4335;}.e{fill:none;}</style></defs><path class="a" d="M173.77,26.228a11.166,11.166,0,0,0-.162-1.868H165V27.9h4.913a4.182,4.182,0,0,1-1.817,2.751v2.294h2.994a8.912,8.912,0,0,0,2.72-6.719Z" transform="translate(-155.865 -16.889)"/><path class="b" d="M165.119,35.109a8.749,8.749,0,0,0,6.09-2.213L168.256,30.6a5.511,5.511,0,0,1-3.1.873,5.451,5.451,0,0,1-5.075-3.766H157.04v2.324a9.135,9.135,0,0,0,8.12,5.075Z" transform="translate(-155.984 -16.839)"/><path class="c" d="M160.059,27.8a5.44,5.44,0,0,1,0-3.471V22h-3.045a9.135,9.135,0,0,0,0,8.12l3.045-2.365Z" transform="translate(-155.999 -16.925)"/><path class="d" d="M165.12,20.634A4.9,4.9,0,0,1,168.612,22l2.6-2.629A8.78,8.78,0,0,0,165.12,17,9.135,9.135,0,0,0,157,22.075l3.045,2.365a5.451,5.451,0,0,1,5.075-3.766Z" transform="translate(-155.985 -17)"/><path class="e" d="M156,17h18.27V35.27H156Z" transform="translate(-156 -17)"/></svg>