<svg xmlns="http://www.w3.org/2000/svg" width="46" height="46" viewBox="0 0 46 46">
  <g id="Group_7062" data-name="Group 7062" transform="translate(-6768 -13955)">
    <circle id="Ellipse_1292" data-name="Ellipse 1292" cx="23" cy="23" r="23" transform="translate(6768 13955)" fill="#4389f8" opacity="0.15"/>
    <path id="Path_13940" data-name="Path 13940" d="M9.344,0a9.344,9.344,0,1,0,9.344,9.344A9.344,9.344,0,0,0,9.344,0Zm4.039,11.121H9.422c-.013,0-.026,0-.039,0s-.026,0-.039,0a.646.646,0,0,1-.646-.646v-6.6a.646.646,0,0,1,1.292,0V9.828h3.393a.646.646,0,0,1,0,1.292Z" transform="translate(6781.656 13968.656)" fill="#4389f8"/>
  </g>
</svg>
