<svg xmlns="http://www.w3.org/2000/svg" width="36" height="36" viewBox="0 0 36 36">
  <g id="Group_11576" data-name="Group 11576" transform="translate(-30 -411)">
    <g id="Ellipse_1383" data-name="Ellipse 1383" transform="translate(30 411)" fill="#29c677" stroke="#29c677" stroke-width="1" opacity="0.15">
      <circle cx="18" cy="18" r="18" stroke="none"/>
      <circle cx="18" cy="18" r="17.5" fill="none"/>
    </g>
    <g id="_381-key" data-name="381-key" transform="translate(41.346 422.346)">
      <g id="Group_7366" data-name="Group 7366" transform="translate(0)">
        <path id="Path_14150" data-name="Path 14150" d="M9.427,0A3.882,3.882,0,0,0,6.318,6.206L3.767,8.757h0L2.1,10.421h0L.162,12.362a.555.555,0,0,0,.784.784L2.5,11.6l1.549,1.549a.555.555,0,0,0,.784-.784L3.279,10.813l.879-.879.994.994a.555.555,0,1,0,.784-.784l-.994-.994L7.1,6.99A3.882,3.882,0,1,0,9.427,0Zm0,6.654A2.764,2.764,0,0,1,7.47,5.846l0,0,0,0a2.773,2.773,0,1,1,1.964.816Z" transform="translate(0)" fill="#29c677" stroke="#29c677" stroke-width="0.5"/>
      </g>
    </g>
  </g>
</svg>
