<svg xmlns="http://www.w3.org/2000/svg" width="36" height="36" viewBox="0 0 36 36">
  <g id="Group_11576" data-name="Group 11576" transform="translate(-30 -411)">
    <circle id="Ellipse_1383" data-name="Ellipse 1383" cx="18" cy="18" r="18" transform="translate(30 411)" fill="#6a28e6" opacity="0.15"/>
    <g id="globe" transform="translate(42 422.979)">
      <g id="Group_11835" data-name="Group 11835" transform="translate(0 0.022)">
        <path id="Path_17041" data-name="Path 17041" d="M6.492.022a6.51,6.51,0,0,0-.7.037,6.136,6.136,0,0,0-.629.1l-.12.026a6.5,6.5,0,0,0-3.206,1.8q-.122.125-.239.257a6.507,6.507,0,0,0,9.546,8.838q.122-.125.239-.257A6.507,6.507,0,0,0,6.492.022ZM2.128,2.307c.034-.036.07-.07.1-.1s.08-.08.122-.118.074-.066.111-.1.084-.074.126-.11.077-.062.115-.093.087-.069.131-.1.08-.059.12-.087.09-.065.136-.1l.124-.081c.046-.03.093-.059.14-.087l.128-.075.145-.08.13-.068.149-.073L4.044.974,4.2.909,4.333.855c.052-.02.106-.039.159-.057L4.628.751C4.682.734,4.737.718,4.791.7L4.928.663,4.981.65A5.382,5.382,0,0,0,3.595,2.9a7.286,7.286,0,0,1-1.486-.572Zm-.312.349a7.537,7.537,0,0,0,1.646.655,11.256,11.256,0,0,0-.438,3H.423A6.061,6.061,0,0,1,1.816,2.656Zm0,7.746A6.061,6.061,0,0,1,.423,6.746h2.6a11.255,11.255,0,0,0,.438,3A7.542,7.542,0,0,0,1.816,10.4ZM4.927,12.4c-.044-.011-.089-.025-.134-.039s-.11-.032-.164-.05l-.136-.046c-.053-.018-.107-.037-.159-.057L4.2,12.152l-.155-.065-.132-.06-.152-.073c-.043-.022-.087-.043-.13-.067l-.146-.081c-.043-.024-.085-.049-.126-.074s-.095-.058-.141-.088l-.123-.08c-.046-.031-.092-.064-.137-.1s-.079-.057-.118-.087-.089-.069-.133-.1-.077-.061-.114-.092-.085-.074-.127-.111-.074-.065-.11-.1-.082-.079-.122-.118-.07-.069-.1-.1l-.019-.02a7.28,7.28,0,0,1,1.486-.572A5.384,5.384,0,0,0,4.98,12.41Zm1.348.189c-.928-.132-1.742-1.1-2.254-2.531A11.023,11.023,0,0,1,6.275,9.79v2.8Zm0-3.23a11.423,11.423,0,0,0-2.39.285,10.852,10.852,0,0,1-.427-2.894H6.275V9.356Zm0-3.043H3.458a10.849,10.849,0,0,1,.427-2.894,11.427,11.427,0,0,0,2.39.285Zm0-3.043A11.012,11.012,0,0,1,4.021,3C4.533,1.574,5.347.6,6.275.473v2.8Zm4.893-.613a6.061,6.061,0,0,1,1.393,3.656H9.96a11.255,11.255,0,0,0-.438-3A7.544,7.544,0,0,0,11.168,2.656ZM8.055.661c.046.011.091.026.136.039s.11.032.164.05L8.492.8c.053.018.107.037.159.057l.134.053L8.94.972l.132.06.152.073c.043.022.087.043.13.067l.146.081c.043.024.085.049.126.074s.095.058.141.088l.123.08c.046.031.092.064.137.1s.08.057.119.087.089.069.133.1.077.061.114.092.085.074.127.111.074.065.11.1.082.079.122.118.07.069.1.1l.019.02A7.281,7.281,0,0,1,9.391,2.9,5.383,5.383,0,0,0,8,.648ZM6.709.473C7.637.6,8.451,1.574,8.963,3a11.023,11.023,0,0,1-2.254.265Zm0,3.23A11.423,11.423,0,0,0,9.1,3.418a10.852,10.852,0,0,1,.427,2.894H6.709Zm0,3.043H9.526A10.849,10.849,0,0,1,9.1,9.641h0a11.427,11.427,0,0,0-2.39-.285Zm0,5.84V9.79a11.012,11.012,0,0,1,2.254.265C8.451,11.485,7.637,12.454,6.709,12.586Zm4.147-1.834c-.034.035-.07.069-.1.1s-.081.08-.122.118-.073.065-.11.1-.084.075-.127.111-.077.062-.115.093-.087.069-.131.1-.08.059-.12.087-.09.065-.136.1l-.124.081q-.07.045-.14.087L9.5,11.8l-.145.08-.13.068-.149.073-.133.061-.154.065-.135.054c-.053.02-.106.039-.159.057l-.136.046c-.054.018-.108.034-.164.049l-.137.039L8,12.409A5.382,5.382,0,0,0,9.39,10.158a7.286,7.286,0,0,1,1.486.572Zm.312-.349a7.537,7.537,0,0,0-1.646-.655,11.256,11.256,0,0,0,.438-3h2.6A6.06,6.06,0,0,1,11.168,10.4Z" transform="translate(0 -0.022)" fill="#6a28e6" stroke="#6a28e6" stroke-width="0.5"/>
      </g>
    </g>
  </g>
</svg>
