<svg xmlns="http://www.w3.org/2000/svg" width="180.258" height="40.027" viewBox="0 0 180.258 40.027">
  <g id="Group_11684" data-name="Group 11684" transform="translate(-969 -21)">
    <g id="Group_7357" data-name="Group 7357" transform="translate(969 21)">
      <g id="Group_41" data-name="Group 41" transform="translate(0 0)">
        <path id="Path_5" data-name="Path 5" d="M107.509,38.732,95.486,31.8,91.1,34.321l5.016,2.949L105.8,42.84l2.218-1.286A21.357,21.357,0,0,0,107.509,38.732Z" transform="translate(-68.137 -23.784)" fill="#e63146"/>
        <path id="Path_6" data-name="Path 6" d="M15.754,54.173l4.235-2.445-3.1-1.815L4.361,42.578,4.335,30A19.93,19.93,0,0,0,0,42.376v.151a19.972,19.972,0,0,0,4.361,12.4v-7.36l9.5,5.495Z" transform="translate(0 -22.438)" fill="#e63146"/>
        <path id="Path_7" data-name="Path 7" d="M55.242,0a20.448,20.448,0,0,0-3.05.227l6.1,3.5h0l-1.563.907h0L52.822,6.906,49.847,8.62h0L47.1,10.208v4.915l7.915-4.537H54.99l1.563-.907h0l3.983-2.294,2.042-1.159L73.844,12.7A20.031,20.031,0,0,0,55.242,0Z" transform="translate(-35.228 0)" fill="#f7cf34"/>
        <path id="Path_8" data-name="Path 8" d="M62.222,107.6l-4.512,2.621-.781.454L47.3,116.246v2.546a21.491,21.491,0,0,0,2.7.958l12.25-7.083Z" transform="translate(-35.378 -80.478)" fill="#f7cf34"/>
        <path id="Path_9" data-name="Path 9" d="M28.011,112.971,23.6,110.4v6.4a19.4,19.4,0,0,0,4.411,3.3l-.025-2.647.025-.025Z" transform="translate(-17.651 -82.572)" fill="#4389f8"/>
        <path id="Path_10" data-name="Path 10" d="M88.8,73.32l-5.974,3.453v-1.79h0V69.892h0V68.1h0V64.2l-4.335-2.5v8.9h0v8.7L67,85.923a21.483,21.483,0,0,0,3.126.252,20.1,20.1,0,0,0,10.309-2.848l.1-.05A20,20,0,0,0,88.8,73.32Z" transform="translate(-50.112 -46.148)" fill="#4389f8"/>
        <path id="Path_11" data-name="Path 11" d="M47.2,75.491l2.395,1.386,6.453,3.781L56,75.264l-3.478-1.89h0L47.2,70.5Z" transform="translate(-35.303 -52.73)" fill="#f7cf34"/>
        <path id="Path_12" data-name="Path 12" d="M23.4,17.341l.025,13.435,4.361,2.546.05-4.764V25.709l-.025-4.865h.025V16.635L25.694,15.4A16.977,16.977,0,0,0,23.4,17.341Z" transform="translate(-17.502 -11.518)" fill="#4389f8"/>
        <path id="Path_13" data-name="Path 13" d="M50.5,50.54l4.512,2.445,3.4-1.84,1.563-.832h0l.756-.428,3.05-1.638-.176-.1-2.571-1.462L59.2,45.6l-1.638.882-3.882,2.243Z" transform="translate(-37.771 -34.106)" fill="#4389f8"/>
        <path id="Path_14" data-name="Path 14" d="M141.747,78.128V77.7l-2.269,1.336-.076-.05L136,80.926v5.092l5.117-2.974A19.055,19.055,0,0,0,141.747,78.128Z" transform="translate(-101.72 -58.115)" fill="#f7cf34"/>
        <path id="Path_15" data-name="Path 15" d="M88.176,71.356l.025,2.521,4.537-2.647-.025-9.83L88.1,63.9Z" transform="translate(-65.893 -45.923)" fill="#e63146"/>
        <path id="Path_16" data-name="Path 16" d="M38.4,5.043l2.193,1.21v.126l3.655,2.092,4.386-2.546L43.391,2.9A19.021,19.021,0,0,0,38.4,5.043Z" transform="translate(-28.721 -2.169)" fill="#e63146"/>
      </g>
    </g>
    <g id="Group_7356" data-name="Group 7356" transform="translate(1032.886 25.363)">
      <path id="Path_1" data-name="Path 1" d="M201.635,104.187V105.3a5.358,5.358,0,0,1,4.706-2.4c4.5,0,7.212,2.641,7.212,8.3s-2.743,8.329-7.212,8.329a5.624,5.624,0,0,1-4.706-2.4v7.821a1.117,1.117,0,1,1-2.235,0V104.254a1.127,1.127,0,0,1,1.117-1.117A1.069,1.069,0,0,1,201.635,104.187Zm4.706,13.306c3.183,0,4.977-2,4.977-6.331s-1.862-6.3-5.045-6.3c-2.573,0-4.706,1.794-4.706,6.3C201.567,115.631,203.632,117.493,206.341,117.493Z" transform="translate(-199.4 -94.435)" fill="#22283a"/>
      <path id="Path_2" data-name="Path 2" d="M258.635,105.776A4.97,4.97,0,0,1,263.443,103a1.083,1.083,0,1,1,0,2.167c-3.183,0-4.808,2.2-4.808,5.383V118.3a1.117,1.117,0,1,1-2.235,0V104.287a1.117,1.117,0,0,1,2.235,0Z" transform="translate(-237.101 -94.502)" fill="#22283a"/>
      <path id="Path_3" data-name="Path 3" d="M304.091,111.2c0,5.654-2.776,8.329-7.246,8.329S289.6,116.85,289.6,111.2s2.81-8.3,7.246-8.3C301.315,102.9,304.091,105.507,304.091,111.2Zm-2.235,0c0-4.368-1.828-6.3-5.011-6.3s-5.011,1.93-5.011,6.3c0,4.435,1.828,6.331,5.011,6.331C300.028,117.493,301.857,115.6,301.857,111.2Z" transform="translate(-259.06 -94.435)" fill="#22283a"/>
      <path id="Path_4" data-name="Path 4" d="M356.313,88.6V79.017a1.117,1.117,0,1,1,2.235,0V96.15c0,4.571-2.844,6.806-6.772,6.806-4.469,0-7.076-2.675-7.076-8.329s2.472-8.3,6.941-8.3A5.866,5.866,0,0,1,356.313,88.6Zm0,2.81a5.256,5.256,0,0,0-4.571-3.047c-3.149,0-4.876,2.032-4.876,6.3,0,4.334,1.693,6.332,4.876,6.332,2.675,0,4.571-1.524,4.571-4.808Z" transform="translate(-295.504 -77.9)" fill="#22283a"/>
      <path id="Path_5-2" data-name="Path 5" d="M408.01,102.9c5.519,0,6.6,4.4,6.6,6.738,0,1.016,0,2.2-1.388,2.2h-10.09c0,3.42,1.964,5.62,5.214,5.62a6.191,6.191,0,0,0,4.131-1.49.945.945,0,0,1,.609-.2,1.011,1.011,0,0,1,.643,1.795,7.69,7.69,0,0,1-5.383,1.93c-4.6,0-7.449-2.539-7.449-8.329C400.9,105.846,403.507,102.9,408.01,102.9Zm0,2c-3.013,0-4.672,1.93-4.876,5.011h9.311C412.446,107.4,411.565,104.9,408.01,104.9Z" transform="translate(-332.675 -94.435)" fill="#22283a"/>
      <path id="Path_6-2" data-name="Path 6" d="M457.735,104.517v9.006c0,2.235.711,4.165,4.2,4.165s4.2-1.93,4.2-4.165v-9.006a1.135,1.135,0,0,1,1.151-1.117,1.1,1.1,0,0,1,1.083,1.117v9.006c0,3.284-1.083,6.3-6.433,6.3-5.316,0-6.433-3.013-6.433-6.3v-9.006a1.106,1.106,0,0,1,1.117-1.117A1.15,1.15,0,0,1,457.735,104.517Z" transform="translate(-368.788 -94.766)" fill="#22283a"/>
      <path id="Path_7-2" data-name="Path 7" d="M510.612,107.231c0,3.623,9.074,2.269,9.074,7.821,0,3.149-2.607,4.571-5.857,4.571a7.755,7.755,0,0,1-5.891-2.472,1.009,1.009,0,0,1,.779-1.659,1.038,1.038,0,0,1,.745.339,5.81,5.81,0,0,0,4.4,1.693c1.964,0,3.657-.643,3.657-2.438,0-3.555-9.074-2.133-9.074-7.821,0-2.878,2.336-4.165,5.282-4.165a6.313,6.313,0,0,1,5.248,2.2,1.009,1.009,0,0,1-.779,1.659.961.961,0,0,1-.711-.3,4.861,4.861,0,0,0-3.758-1.456C512.135,105.165,510.612,105.639,510.612,107.231Z" transform="translate(-403.314 -94.568)" fill="#22283a"/>
    </g>
  </g>
</svg>
