<?xml version="1.0" encoding="utf-8"?>
<!-- Generator: Adobe Illustrator 24.2.1, SVG Export Plug-In . SVG Version: 6.00 Build 0)  -->
<svg version="1.1" id="Layer_1" xmlns="http://www.w3.org/2000/svg" xmlns:xlink="http://www.w3.org/1999/xlink" x="0px" y="0px"
	 viewBox="0 0 39.9 39.9" style="enable-background:new 0 0 39.9 39.9;" xml:space="preserve">
<style type="text/css">
	.st0{opacity:0.1;fill:#22283A;enable-background:new    ;}
	.st1{fill:#4389F8;}
	.st2{fill:#F7CF34;}
	.st3{fill:#E63146;}
</style>
<g id="Group_5506" transform="translate(-8616 -9329.042)">
	<path id="Path_8" class="st0" d="M8655.1,9343.8l-11.6-6.7c-0.1-0.1-0.3-0.1-0.4,0l-3.5,2c-0.2,0.1-0.3,0.3-0.2,0.5
		c0,0.1,0.1,0.1,0.2,0.2l4.4,2.6l9.4,5.4c0.1,0.1,0.3,0.1,0.4,0l1.8-1c0.1-0.1,0.2-0.3,0.2-0.4c-0.1-0.8-0.2-1.6-0.4-2.4
		C8655.2,9344,8655.1,9343.9,8655.1,9343.8z"/>
	<path id="Path_9" class="st0" d="M8631.9,9360.5l3.4-1.9c0.2-0.1,0.3-0.3,0.2-0.5c0-0.1-0.1-0.1-0.2-0.2l-2.4-1.4l-12.3-7.2
		c-0.1-0.1-0.2-0.2-0.2-0.4v-11c0-0.2-0.2-0.4-0.4-0.4c-0.1,0-0.3,0.1-0.4,0.2c-2.3,3.3-3.6,7.3-3.6,11.3v0.2c0,4,1.3,8,3.6,11.3
		c0.1,0.2,0.4,0.2,0.6,0.1c0.1-0.1,0.2-0.2,0.2-0.4v-5.3c0-0.2,0.2-0.4,0.4-0.4c0.1,0,0.2,0,0.2,0.1l8.8,5.1l1.7,1
		C8631.6,9360.6,8631.8,9360.6,8631.9,9360.5z"/>
	<path id="Path_10" class="st0" d="M8635.9,9329c-0.6,0-1.2,0-1.8,0.1c-0.2,0-0.4,0.3-0.4,0.5c0,0.1,0.1,0.3,0.2,0.3l5,2.9l0,0
		l-1.5,0.9l0,0l-3.9,2.3l-3,1.6l0,0l-2.5,1.5c-0.1,0.1-0.2,0.2-0.2,0.4v3.9c0,0.2,0.2,0.4,0.4,0.4c0.1,0,0.1,0,0.2,0l7.2-4.2l0,0
		l1.6-0.9l0,0l3.9-2.3l1.8-1c0.1-0.1,0.3-0.1,0.4,0l9.9,5.7c0.2,0.1,0.5,0,0.6-0.2c0.1-0.1,0.1-0.3,0-0.4
		C8650.6,9333.5,8643.6,9329,8635.9,9329z"/>
	<path id="Path_11" class="st0" d="M8642.7,9356.8c0-0.2-0.2-0.4-0.4-0.4c-0.1,0-0.1,0-0.2,0l-3.9,2.2l-0.8,0.5l-9.4,5.4
		c-0.1,0.1-0.2,0.2-0.2,0.4v2c0,0.2,0.1,0.3,0.3,0.4c0.7,0.3,1.5,0.6,2.3,0.8c0.1,0,0.2,0,0.3,0l11.8-6.9c0.1-0.1,0.2-0.2,0.2-0.4
		L8642.7,9356.8z"/>
	<path id="Path_12" class="st1" d="M8626.1,9359.2l-3.6-2.1c-0.2-0.1-0.5-0.1-0.6,0.2c0,0.1-0.1,0.2-0.1,0.2v5.4
		c0,0.1,0,0.2,0.1,0.3c1.1,1.1,2.3,2,3.6,2.8c0.2,0.1,0.5,0.1,0.6-0.2c0-0.1,0.1-0.2,0.1-0.2v-6.1
		C8626.3,9359.4,8626.2,9359.3,8626.1,9359.2z"/>
	<path id="Path_13" class="st0" d="M8653.4,9356.8l-4.2,2.4c-0.2,0.1-0.5,0.1-0.6-0.2c0-0.1-0.1-0.2-0.1-0.2v-1.1l0,0v-5.1l0,0v-1.8
		l0,0v-3.6c0-0.2-0.1-0.3-0.2-0.4l-3.5-2c-0.2-0.1-0.5-0.1-0.6,0.2c0,0.1-0.1,0.2-0.1,0.2v8.1l0,0v8.4c0,0.2-0.1,0.3-0.2,0.4
		l-10.1,5.9c-0.2,0.1-0.3,0.4-0.2,0.6c0.1,0.1,0.2,0.2,0.3,0.2c0.6,0,1.2,0.1,1.8,0.1c3.6,0,7.2-1,10.3-2.8l0.1,0
		c3.4-2.1,6.1-5.1,7.8-8.7C8654.2,9356.9,8653.8,9356.5,8653.4,9356.8z"/>
	<path id="Path_14" class="st2" d="M8627.8,9351.5c0,0.2,0.1,0.3,0.2,0.4l2.2,1.3l5.8,3.4c0.2,0.1,0.5,0.1,0.6-0.2
		c0-0.1,0.1-0.2,0.1-0.2l0-4.4c0-0.2-0.1-0.3-0.2-0.4l-3.3-1.8l0,0l-4.7-2.5c-0.2-0.1-0.5-0.1-0.6,0.2c0,0.1-0.1,0.2-0.1,0.2V9351.5
		z"/>
	<path id="Path_15" class="st1" d="M8621.8,9335v13c0,0.2,0.1,0.3,0.2,0.4l3.5,2.1c0.2,0.1,0.5,0.1,0.6-0.2c0-0.1,0.1-0.2,0.1-0.2
		l0-4v-7.7l0,0v-3.9c0-0.2-0.1-0.3-0.2-0.4l-1.7-1c-0.1-0.1-0.3-0.1-0.5,0c-0.7,0.5-1.3,1.1-1.9,1.6
		C8621.9,9334.8,8621.8,9334.9,8621.8,9335z"/>
	<path id="Path_16" class="st1" d="M8629.3,9345.8l3.6,2c0.1,0.1,0.3,0.1,0.4,0l3.2-1.7l1.5-0.8l0,0l0.8-0.4l2.4-1.3
		c0.2-0.1,0.3-0.3,0.2-0.5c0-0.1-0.1-0.1-0.2-0.2l-2.1-1.2l-1.6-0.9c-0.1-0.1-0.3-0.1-0.4,0l-1.4,0.8l-3.9,2.2l-2.5,1.5
		c-0.2,0.1-0.3,0.3-0.2,0.5C8629.2,9345.7,8629.2,9345.7,8629.3,9345.8z"/>
	<path id="Path_17" class="st0" d="M8655.9,9349L8655.9,9349c0-0.1-0.1-0.2-0.2-0.3c-0.1,0-0.1,0-0.2,0l-5.1,2.9
		c-0.1,0.1-0.2,0.2-0.2,0.4v4.1c0,0.2,0.2,0.4,0.4,0.4c0.1,0,0.2,0,0.2-0.1l4.3-2.5c0.1-0.1,0.2-0.2,0.2-0.3
		C8655.7,9352.2,8655.9,9350.6,8655.9,9349z"/>
	<path id="Path_18" class="st3" d="M8638.2,9354.4v1.8c0,0.2,0.2,0.4,0.4,0.4c0.1,0,0.1,0,0.2,0l3.7-2.1c0.1-0.1,0.2-0.2,0.2-0.4
		v-8.9c0-0.2-0.2-0.4-0.4-0.4c-0.1,0-0.1,0-0.2,0l-3.7,2c-0.1,0.1-0.2,0.2-0.2,0.4L8638.2,9354.4z"/>
	<path id="Path_19" class="st0" d="M8626.2,9332.3l5,2.9c0.1,0.1,0.3,0.1,0.4,0l3.6-2.1c0.2-0.1,0.3-0.3,0.2-0.5
		c0-0.1-0.1-0.1-0.2-0.2l-4.5-2.6c-0.1-0.1-0.2-0.1-0.3,0c-1.4,0.4-2.8,1-4.2,1.7c-0.2,0.1-0.3,0.4-0.2,0.6
		C8626.1,9332.2,8626.2,9332.2,8626.2,9332.3z"/>
</g>
</svg>
