<?xml version="1.0" encoding="utf-8"?>
<!-- Generator: Adobe Illustrator 24.2.1, SVG Export Plug-In . SVG Version: 6.00 Build 0)  -->
<svg version="1.1" id="Layer_1" xmlns="http://www.w3.org/2000/svg" xmlns:xlink="http://www.w3.org/1999/xlink" x="0px" y="0px"
	 viewBox="0 0 39.9 39.9" style="enable-background:new 0 0 39.9 39.9;" xml:space="preserve">
<style type="text/css">
	.st0{fill:#4389F8;}
	.st1{fill:#E63146;}
	.st2{opacity:0.1;fill:#22283A;enable-background:new    ;}
</style>
<g id="Group_5504" transform="translate(-7132 -9694)">
	<path id="Path_16" class="st0" d="M7145.3,9710.7l3.6,2c0.1,0.1,0.3,0.1,0.4,0l3.2-1.7l1.5-0.8l0,0l0.8-0.4l2.4-1.3
		c0.2-0.1,0.3-0.3,0.2-0.5c0-0.1-0.1-0.1-0.2-0.2l-2.1-1.2l-1.6-0.9c-0.1-0.1-0.3-0.1-0.4,0l-1.4,0.8l-3.9,2.2l-2.5,1.5
		c-0.2,0.1-0.3,0.3-0.2,0.5C7145.2,9710.6,7145.2,9710.7,7145.3,9710.7z"/>
	<path id="Path_18" class="st1" d="M7154.2,9719.4v1.8c0,0.2,0.2,0.4,0.4,0.4c0.1,0,0.1,0,0.2,0l3.7-2.1c0.1-0.1,0.2-0.2,0.2-0.4
		v-8.9c0-0.2-0.2-0.4-0.4-0.4c-0.1,0-0.1,0-0.2,0l-3.7,2c-0.1,0.1-0.2,0.2-0.2,0.4L7154.2,9719.4z"/>
	<path id="Path_8" class="st2" d="M7171.1,9708.8l-11.6-6.7c-0.1-0.1-0.3-0.1-0.4,0l-3.5,2c-0.2,0.1-0.3,0.3-0.2,0.5
		c0,0.1,0.1,0.1,0.2,0.2l4.4,2.6l9.4,5.4c0.1,0.1,0.3,0.1,0.4,0l1.8-1c0.1-0.1,0.2-0.3,0.2-0.4c-0.1-0.8-0.2-1.6-0.4-2.4
		C7171.2,9708.9,7171.1,9708.9,7171.1,9708.8z"/>
	<path id="Path_9" class="st2" d="M7147.9,9725.5l3.4-1.9c0.2-0.1,0.3-0.3,0.2-0.5c0-0.1-0.1-0.1-0.2-0.2l-2.4-1.4l-12.3-7.2
		c-0.1-0.1-0.2-0.2-0.2-0.4v-11c0-0.2-0.2-0.4-0.4-0.4c-0.1,0-0.3,0.1-0.4,0.2c-2.3,3.3-3.6,7.3-3.6,11.3v0.2c0,4,1.3,8,3.6,11.3
		c0.1,0.2,0.4,0.2,0.6,0.1c0.1-0.1,0.2-0.2,0.2-0.4v-5.3c0-0.2,0.2-0.4,0.4-0.4c0.1,0,0.2,0,0.2,0.1l8.8,5.1l1.7,1
		C7147.6,9725.6,7147.8,9725.6,7147.9,9725.5z"/>
	<path id="Path_10" class="st2" d="M7151.9,9694c-0.6,0-1.2,0-1.8,0.1c-0.2,0-0.4,0.3-0.4,0.5c0,0.1,0.1,0.3,0.2,0.3l5,2.9l0,0
		l-1.5,0.9l0,0l-3.9,2.3l-3,1.6l0,0l-2.5,1.5c-0.1,0.1-0.2,0.2-0.2,0.4v3.9c0,0.2,0.2,0.4,0.4,0.4c0.1,0,0.1,0,0.2,0l7.2-4.2l0,0
		l1.6-0.9l0,0l3.9-2.3l1.8-1c0.1-0.1,0.3-0.1,0.4,0l9.9,5.7c0.2,0.1,0.5,0,0.6-0.2c0.1-0.1,0.1-0.3,0-0.4
		C7166.6,9698.5,7159.6,9694,7151.9,9694z"/>
	<path id="Path_11" class="st2" d="M7158.7,9721.8c0-0.2-0.2-0.4-0.4-0.4c-0.1,0-0.1,0-0.2,0l-3.9,2.2l-0.8,0.5l-9.4,5.4
		c-0.1,0.1-0.2,0.2-0.2,0.4v2c0,0.2,0.1,0.3,0.3,0.4c0.7,0.3,1.5,0.6,2.3,0.8c0.1,0,0.2,0,0.3,0l11.8-6.9c0.1-0.1,0.2-0.2,0.2-0.4
		L7158.7,9721.8z"/>
	<path id="Path_12" class="st2" d="M7142.1,9724.2l-3.6-2.1c-0.2-0.1-0.5-0.1-0.6,0.2c0,0.1-0.1,0.2-0.1,0.2v5.4
		c0,0.1,0,0.2,0.1,0.3c1.1,1.1,2.3,2,3.6,2.8c0.2,0.1,0.5,0.1,0.6-0.2c0-0.1,0.1-0.2,0.1-0.2v-6.1
		C7142.3,9724.4,7142.2,9724.2,7142.1,9724.2z"/>
	<path id="Path_13" class="st2" d="M7169.4,9721.7l-4.2,2.4c-0.2,0.1-0.5,0.1-0.6-0.2c0-0.1-0.1-0.2-0.1-0.2v-1.1l0,0v-5.1l0,0v-1.8
		l0,0v-3.6c0-0.2-0.1-0.3-0.2-0.4l-3.5-2c-0.2-0.1-0.5-0.1-0.6,0.2c0,0.1-0.1,0.2-0.1,0.2v8.1l0,0v8.4c0,0.2-0.1,0.3-0.2,0.4
		l-10.1,5.9c-0.2,0.1-0.3,0.4-0.2,0.6c0.1,0.1,0.2,0.2,0.3,0.2c0.6,0,1.2,0.1,1.8,0.1c3.6,0,7.2-1,10.3-2.8l0.1,0
		c3.4-2.1,6.1-5.1,7.8-8.7C7170.2,9721.9,7169.8,9721.5,7169.4,9721.7z"/>
	<path id="Path_14" class="st2" d="M7143.8,9716.4c0,0.2,0.1,0.3,0.2,0.4l2.2,1.3l5.8,3.4c0.2,0.1,0.5,0.1,0.6-0.2
		c0-0.1,0.1-0.2,0.1-0.2l0-4.4c0-0.2-0.1-0.3-0.2-0.4l-3.3-1.8l0,0l-4.7-2.5c-0.2-0.1-0.5-0.1-0.6,0.2c0,0.1-0.1,0.2-0.1,0.2V9716.4
		z"/>
	<path id="Path_15" class="st2" d="M7137.8,9700v13c0,0.2,0.1,0.3,0.2,0.4l3.5,2.1c0.2,0.1,0.5,0.1,0.6-0.2c0-0.1,0.1-0.2,0.1-0.2
		l0-4v-7.7l0,0v-3.9c0-0.2-0.1-0.3-0.2-0.4l-1.7-1c-0.1-0.1-0.3-0.1-0.5,0c-0.7,0.5-1.3,1.1-1.9,1.6
		C7137.9,9699.7,7137.8,9699.9,7137.8,9700z"/>
	<path id="Path_17" class="st2" d="M7171.9,9713.9L7171.9,9713.9c0-0.1-0.1-0.2-0.2-0.3c-0.1,0-0.1,0-0.2,0l-5.1,2.9
		c-0.1,0.1-0.2,0.2-0.2,0.4v4.1c0,0.2,0.2,0.4,0.4,0.4c0.1,0,0.2,0,0.2-0.1l4.3-2.5c0.1-0.1,0.2-0.2,0.2-0.3
		C7171.7,9717.1,7171.9,9715.5,7171.9,9713.9z"/>
	<path id="Path_19" class="st2" d="M7142.2,9697.2l5,2.9c0.1,0.1,0.3,0.1,0.4,0l3.6-2.1c0.2-0.1,0.3-0.3,0.2-0.5
		c0-0.1-0.1-0.1-0.2-0.2l-4.5-2.6c-0.1-0.1-0.2-0.1-0.3,0c-1.4,0.4-2.8,1-4.2,1.7c-0.2,0.1-0.3,0.4-0.2,0.6
		C7142.1,9697.1,7142.2,9697.2,7142.2,9697.2z"/>
</g>
</svg>
