<svg id="Group_11219" data-name="Group 11219" xmlns="http://www.w3.org/2000/svg" width="12.124" height="11.527" viewBox="0 0 12.124 11.527">
  <path id="Path_13686" data-name="Path 13686" d="M8.32,2.229H5.8a4.8,4.8,0,0,0-2.435,8.938c-.1,1.158-.16,2.6.15,2.59a9.879,9.879,0,0,0,2.324-1.921H8.32a4.8,4.8,0,0,0,0-9.606ZM3.893,7.976a.944.944,0,1,1,.943-.944A.944.944,0,0,1,3.893,7.976Zm3.168,0A.944.944,0,1,1,8,7.032.944.944,0,0,1,7.061,7.976Zm3.168,0a.944.944,0,1,1,.943-.944A.944.944,0,0,1,10.229,7.976Z" transform="translate(-0.999 -2.229)" fill="#fff"/>
</svg>
