<svg xmlns="http://www.w3.org/2000/svg" width="11.246" height="11.567" viewBox="0 0 11.246 11.567">
  <g id="Group_11216" data-name="Group 11216" transform="translate(0 0)">
    <path id="Path_6041" data-name="Path 6041" d="M222.307,7.232h3.758a.285.285,0,0,0,.279-.29V6.391a.285.285,0,0,0-.279-.29h-2.178L227,2.871a.3.3,0,0,0,0-.41l-.375-.39a.272.272,0,0,0-.395,0L223.117,5.3V3.038a.285.285,0,0,0-.279-.29h-.531a.285.285,0,0,0-.279.29v3.9A.285.285,0,0,0,222.307,7.232Z" transform="translate(-215.832 -1.986)" fill="#fff"/>
    <path id="Path_6042" data-name="Path 6042" d="M3.191,6.1H1.013a.285.285,0,0,0-.279.29v.551a.285.285,0,0,0,.279.29H4.771a.285.285,0,0,0,.279-.29v-3.9a.285.285,0,0,0-.279-.29H4.24a.285.285,0,0,0-.279.29V5.3L.852,2.071a.272.272,0,0,0-.395,0l-.375.39a.3.3,0,0,0,0,.41Z" transform="translate(0 -1.986)" fill="#fff"/>
    <path id="Path_6043" data-name="Path 6043" d="M222.3,224.525h.531a.285.285,0,0,0,.279-.29v-2.262l3.109,3.23a.272.272,0,0,0,.395,0l.375-.39a.3.3,0,0,0,0-.41l-3.109-3.23h2.178a.285.285,0,0,0,.279-.29v-.551a.285.285,0,0,0-.279-.29H222.3a.285.285,0,0,0-.279.29v3.9A.285.285,0,0,0,222.3,224.525Z" transform="translate(-215.829 -213.72)" fill="#fff"/>
    <path id="Path_6044" data-name="Path 6044" d="M.457,225.2a.272.272,0,0,0,.395,0l3.109-3.23v2.262a.285.285,0,0,0,.279.29h.531a.285.285,0,0,0,.279-.29v-3.9a.285.285,0,0,0-.279-.29H1.013a.285.285,0,0,0-.279.29v.551a.285.285,0,0,0,.279.29H3.191L.082,224.4a.3.3,0,0,0,0,.41Z" transform="translate(0 -213.72)" fill="#fff"/>
  </g>
</svg>
