<svg id="Group_11217" data-name="Group 11217" xmlns="http://www.w3.org/2000/svg" width="13.169" height="9.994" viewBox="0 0 13.169 9.994">
  <path id="speaker" d="M6.742,0V9.518L3.173,6.742H0V2.776H3.173Z" fill="#fff"/>
  <path id="path" d="M.952,4.7l-.635.476a4.072,4.072,0,0,1,1.19,3.093A4.1,4.1,0,0,1,0,11.283l.793.4A5.179,5.179,0,0,0,2.3,8.19,5.035,5.035,0,0,0,.952,4.7Z" transform="translate(7.932 -3.114)" fill="#fff"/>
  <path id="path-2" data-name="path" d="M3.693,2.9l-.635.476a5.858,5.858,0,0,1,1.9,4.442A5.713,5.713,0,0,1,2.9,12.259l.714.476A6.887,6.887,0,0,0,5.835,7.818,6.344,6.344,0,0,0,3.693,2.9Z" transform="translate(7.332 -2.741)" fill="#fff"/>
</svg>
